<svg width="56" height="56" viewBox="0 0 56 56" fill="none" xmlns="http://www.w3.org/2000/svg">
<rect width="56" height="56" rx="8" fill="#3771C8"/>
<path d="M36.71 35.29L33.31 31.9C34.407 30.5025 35.0022 28.7767 35 27C35 25.4178 34.5308 23.871 33.6518 22.5554C32.7727 21.2398 31.5233 20.2145 30.0615 19.609C28.5997 19.0035 26.9911 18.845 25.4393 19.1537C23.8874 19.4624 22.462 20.2243 21.3431 21.3431C20.2243 22.462 19.4624 23.8874 19.1537 25.4393C18.845 26.9911 19.0035 28.5997 19.609 30.0615C20.2145 31.5233 21.2398 32.7727 22.5554 33.6518C23.871 34.5308 25.4178 35 27 35C28.7767 35.0022 30.5025 34.407 31.9 33.31L35.29 36.71C35.383 36.8037 35.4936 36.8781 35.6154 36.9289C35.7373 36.9797 35.868 37.0058 36 37.0058C36.132 37.0058 36.2627 36.9797 36.3846 36.9289C36.5064 36.8781 36.617 36.8037 36.71 36.71C36.8037 36.617 36.8781 36.5064 36.9289 36.3846C36.9797 36.2627 37.0058 36.132 37.0058 36C37.0058 35.868 36.9797 35.7373 36.9289 35.6154C36.8781 35.4936 36.8037 35.383 36.71 35.29ZM21 27C21 25.8133 21.3519 24.6533 22.0112 23.6666C22.6705 22.6799 23.6075 21.9109 24.7039 21.4567C25.8003 21.0026 27.0067 20.8838 28.1705 21.1153C29.3344 21.3468 30.4035 21.9182 31.2426 22.7574C32.0818 23.5965 32.6532 24.6656 32.8847 25.8295C33.1162 26.9933 32.9974 28.1997 32.5433 29.2961C32.0892 30.3925 31.3201 31.3295 30.3334 31.9888C29.3467 32.6481 28.1867 33 27 33C25.4087 33 23.8826 32.3679 22.7574 31.2426C21.6321 30.1174 21 28.5913 21 27Z" fill="white"/>
</svg>
